<?xml version="1.0" standalone="no"?>
<!DOCTYPE svg PUBLIC "-//W3C//DTD SVG 20010904//EN"
 "http://www.w3.org/TR/2001/REC-SVG-20010904/DTD/svg10.dtd">
<svg version="1.0" xmlns="http://www.w3.org/2000/svg"
 width="430.000000pt" height="369.000000pt" viewBox="0 0 430.000000 369.000000"
 preserveAspectRatio="xMidYMid meet">

<g transform="translate(0.000000,369.000000) scale(0.100000,-0.100000)"
fill="#000000" stroke="none">
<path d="M1160 1857 c0 -43 9 -47 104 -47 218 -1 514 -73 714 -174 62 -32 66
-32 104 -4 l31 21 -69 35 c-207 105 -461 166 -736 178 -131 6 -148 5 -148 -9z"/>
<path d="M1200 1728 c0 -32 26 -45 115 -58 178 -24 361 -78 527 -154 69 -32
69 -32 97 -2 l22 23 -23 15 c-37 24 -217 95 -298 118 -111 31 -253 57 -352 65
-73 6 -88 5 -88 -7z"/>
<path d="M1277 1568 c15 -26 31 -37 78 -51 167 -49 235 -72 328 -113 56 -24
103 -44 104 -44 1 0 11 13 22 29 l20 28 -52 26 c-112 56 -261 105 -416 137
-51 11 -95 20 -98 20 -3 0 4 -15 14 -32z"/>
<path d="M1406 1397 c26 -34 147 -137 198 -168 l45 -28 30 38 c17 22 31 42 31
46 0 9 -131 68 -233 104 -85 30 -87 30 -71 8z"/>
<path d="M2663 687 c-3 -5 -14 -7 -24 -4 -11 3 -19 1 -19 -5 0 -6 -7 -8 -15
-4 -8 3 -20 -3 -27 -12 -7 -9 -20 -17 -28 -17 -8 0 -14 -5 -13 -11 1 -7 -11
-22 -27 -34 -19 -14 -27 -28 -23 -38 4 -10 3 -14 -2 -10 -11 10 -35 -17 -35
-41 0 -11 -4 -23 -10 -26 -5 -3 -10 -14 -9 -23 0 -12 3 -11 9 6 11 26 28 29
37 6 4 -10 -1 -22 -10 -29 -10 -7 -17 -18 -18 -26 0 -8 -4 -5 -8 6 -5 13 -8 4
-8 -28 0 -32 4 -47 14 -47 8 0 13 14 14 43 1 25 4 33 6 18 6 -32 -6 -93 -17
-86 -11 7 -2 -45 11 -61 5 -6 5 -15 1 -19 -4 -5 -2 -5 4 -2 7 4 14 -5 18 -24
4 -22 14 -34 36 -42 16 -6 30 -18 30 -25 0 -9 7 -12 20 -9 11 3 18 1 15 -3 -3
-5 -1 -11 5 -15 5 -3 10 -2 10 3 0 5 17 9 38 10 34 1 36 0 18 -13 -20 -15 -20
-15 0 -17 101 -7 142 -4 184 15 25 12 51 21 59 21 24 2 24 26 -1 35 -21 9 -21
10 -3 11 18 1 18 2 -5 16 -17 10 -18 13 -5 8 11 -3 32 -7 46 -7 19 0 25 -5 22
-15 -5 -11 -7 -11 -14 -1 -4 8 -11 10 -15 6 -4 -4 -2 -13 4 -19 9 -9 15 -9 25
2 8 11 11 47 9 123 l-3 107 -105 0 -104 0 0 -30 0 -30 64 0 c39 0 68 -5 72
-12 5 -8 2 -9 -9 -5 -10 3 -17 2 -17 -2 0 -5 4 -11 9 -13 4 -1 10 -22 14 -46
3 -27 1 -40 -5 -36 -5 4 -23 -3 -39 -15 -16 -12 -34 -19 -39 -16 -6 3 -7 -1
-4 -9 4 -11 0 -16 -11 -16 -9 0 -13 4 -10 10 4 6 -4 6 -21 -1 -16 -5 -45 -7
-66 -4 -25 5 -38 3 -38 -4 0 -19 -17 -12 -23 9 -3 12 -14 20 -26 20 -12 0 -21
4 -21 10 0 5 -7 7 -15 4 -8 -4 -15 -1 -15 5 0 6 3 10 8 10 19 -3 33 2 27 11
-3 5 -12 7 -20 3 -8 -3 -15 -1 -15 5 0 6 6 13 13 15 8 4 6 6 -4 6 -10 1 -15 9
-14 23 2 13 -3 33 -11 45 -7 12 -10 23 -5 25 4 2 11 36 14 77 3 45 11 77 19
82 14 9 5 12 -24 10 -10 -1 -18 3 -18 9 0 8 13 10 38 7 34 -5 35 -4 18 9 -11
8 -14 14 -8 14 7 0 12 4 12 10 0 5 -6 7 -14 4 -8 -3 -17 0 -22 7 -5 9 -2 10 9
6 22 -8 22 9 0 23 -17 11 -17 11 1 6 11 -4 23 0 32 11 10 15 15 16 26 5 11
-11 10 -12 -4 -7 -10 4 -18 4 -18 1 0 -4 8 -19 18 -33 9 -15 12 -24 6 -20 -7
4 -14 0 -17 -8 -5 -11 -1 -12 16 -6 12 5 21 16 21 25 -1 11 2 14 10 8 6 -4 55
-7 109 -7 73 1 97 -2 97 -11 0 -8 7 -11 18 -8 15 5 15 4 -1 -6 -14 -9 -22 -9
-30 -1 -16 16 -27 14 -21 -4 4 -8 10 -12 15 -9 5 3 12 -2 15 -10 3 -9 10 -16
16 -16 5 0 6 6 3 13 -4 6 2 1 13 -12 14 -18 21 -21 27 -11 5 9 4 11 -3 6 -12
-7 -16 9 -12 54 2 27 7 36 15 28 3 -3 1 -17 -4 -32 -10 -24 -7 -28 15 -25 4 0
11 -5 15 -13 6 -9 9 -7 9 8 0 11 -3 24 -7 28 -5 4 -8 13 -8 19 0 6 -10 16 -22
23 -13 6 -21 13 -18 15 2 3 -11 5 -29 5 -24 0 -32 -4 -29 -13 3 -7 0 -13 -7
-13 -8 0 -10 8 -7 21 9 32 -2 51 -25 43 -13 -4 -24 -1 -29 7 -7 12 -9 11 -9
-1 0 -13 -1 -13 -10 0 -8 12 -10 12 -10 1 0 -9 -4 -10 -12 -4 -16 13 -47 13
-55 0z m214 -72 c0 -8 -4 -15 -7 -15 -4 0 -13 7 -20 15 -10 12 -9 15 7 15 11
0 20 -7 20 -15z m-354 -43 c-20 -21 -28 -20 -20 3 4 8 13 15 22 15 13 0 12 -3
-2 -18z m402 8 c3 -5 1 -10 -4 -10 -6 0 -11 5 -11 10 0 6 2 10 4 10 3 0 8 -4
11 -10z m-445 -60 c0 -5 -2 -10 -4 -10 -3 0 -8 5 -11 10 -3 6 -1 10 4 10 6 0
11 -4 11 -10z m48 -100 c-1 -35 -9 -32 -13 5 -2 14 1 25 5 25 5 0 8 -14 8 -30z
m-41 -2 c-3 -8 -6 -5 -6 6 -1 11 2 17 5 13 3 -3 4 -12 1 -19z m15 -60 c-9 -9
-12 -7 -12 12 0 19 3 21 12 12 9 -9 9 -15 0 -24z m-29 -68 c-3 -12 -8 -19 -11
-16 -5 6 5 36 12 36 2 0 2 -9 -1 -20z m67 -95 c0 -8 -4 -15 -9 -15 -5 0 -14 7
-21 15 -10 13 -9 15 9 15 12 0 21 -6 21 -15z m134 -26 c-5 -8 0 -10 17 -6 13
3 42 2 64 -2 32 -6 24 -8 -44 -8 -74 -1 -81 0 -60 12 31 17 31 17 23 4z m146
-30 c0 -5 6 -7 13 -3 9 5 9 4 0 -6 -6 -7 -16 -9 -22 -6 -14 9 -14 26 -1 26 6
0 10 -5 10 -11z m-25 -19 c8 -13 -15 -13 -35 0 -12 8 -11 10 7 10 12 0 25 -4
28 -10z"/>
<path d="M3930 691 c20 -7 14 -9 -30 -9 -51 0 -131 -20 -87 -21 10 -1 15 -6
12 -11 -3 -6 -17 -7 -30 -4 -27 7 -40 -9 -37 -46 1 -18 -5 -28 -23 -37 -28
-12 -31 -7 -11 20 11 14 15 15 19 5 4 -9 6 -7 6 4 1 24 -18 33 -26 11 -3 -10
-13 -28 -21 -41 -9 -13 -16 -51 -17 -85 -3 -75 -4 -78 -16 -52 -8 17 -9 17 -4
-5 2 -14 5 -38 5 -53 0 -16 4 -26 9 -23 5 3 9 -13 8 -37 0 -43 23 -103 31 -79
2 6 8 10 13 6 14 -9 10 -24 -7 -24 -8 0 -13 -4 -9 -10 8 -13 35 -1 35 17 0 8
4 12 8 9 5 -3 9 8 10 25 1 38 12 52 13 18 2 -39 -2 -53 -17 -62 -8 -5 -11 -13
-8 -19 5 -7 2 -8 -6 -3 -10 6 -12 4 -7 -9 4 -10 7 -20 7 -23 0 -2 7 3 16 12 9
9 19 13 23 9 3 -4 0 -9 -6 -11 -7 -3 -13 -10 -13 -15 0 -6 3 -8 6 -5 4 4 20
-3 36 -14 16 -12 27 -16 26 -11 -2 6 1 10 7 10 5 0 12 9 16 19 7 16 8 15 8 -4
1 -13 -4 -23 -11 -23 -6 0 -8 -3 -4 -7 10 -10 76 -11 70 -1 -3 4 0 8 5 8 6 0
11 -4 11 -9 0 -4 19 -8 43 -8 30 0 36 2 22 8 -15 5 -9 7 19 7 28 -1 44 4 56
20 10 12 20 18 24 15 3 -3 18 7 33 22 16 16 22 25 16 21 -7 -4 -13 -3 -13 3 0
5 9 13 21 16 16 5 18 10 9 21 -7 7 -10 19 -7 26 3 8 6 5 6 -6 1 -16 3 -18 14
-7 10 10 8 16 -10 31 -24 19 -30 40 -13 40 6 0 15 -12 21 -26 12 -32 22 -25
23 15 1 22 -3 28 -16 26 -13 -3 -18 3 -19 18 0 21 -1 21 -9 2 -5 -13 -9 -14
-9 -5 0 8 4 24 9 35 7 15 9 16 9 4 1 -9 8 -22 16 -29 13 -11 15 -8 15 14 0 16
4 25 10 21 6 -4 10 5 10 20 0 17 -4 24 -11 19 -8 -5 -10 1 -5 19 7 29 -2 60
-15 51 -5 -3 -9 0 -9 6 0 6 -4 8 -10 5 -5 -3 -10 -1 -10 6 0 7 9 9 23 6 19 -5
20 -4 6 6 -9 7 -20 27 -23 44 -8 34 -25 39 -39 13 -4 -9 -6 -5 -4 13 4 23 2
25 -11 15 -13 -11 -15 -10 -10 4 4 10 1 19 -8 22 -8 3 -14 1 -14 -4 0 -6 -7
-10 -15 -10 -18 0 -19 12 -4 27 11 11 -20 24 -66 29 -11 1 -36 4 -55 8 -28 5
-30 4 -10 -3z m140 -80 c0 -5 -7 -11 -15 -15 -15 -5 -20 5 -8 17 9 10 23 9 23
-2z m10 -26 c-10 -12 -8 -17 11 -24 16 -7 19 -10 7 -10 -13 -1 -18 -25 -8 -38
2 -2 3 -8 4 -14 0 -7 10 -15 21 -19 16 -6 17 -9 5 -14 -16 -7 -20 -80 -5 -93
4 -5 6 -1 2 9 -3 9 -2 29 4 45 8 26 9 26 4 -7 -6 -39 11 -30 18 10 3 18 5 14
6 -13 0 -23 -3 -36 -9 -32 -6 4 -10 -6 -10 -24 0 -16 -4 -32 -9 -36 -6 -3 -8
4 -6 15 2 11 0 18 -6 15 -5 -4 -9 -21 -9 -39 0 -19 -6 -39 -14 -46 -8 -6 -13
-17 -10 -24 3 -7 -3 -19 -12 -27 -16 -12 -17 -12 -9 1 6 11 3 10 -12 -3 -11
-9 -25 -17 -31 -17 -7 0 -12 -7 -12 -15 0 -8 -7 -15 -16 -15 -9 0 -12 5 -8 13
6 9 5 9 -7 0 -11 -9 -25 -10 -47 -4 -27 8 -30 7 -27 -10 2 -11 0 -17 -6 -14
-5 4 -9 10 -9 16 0 16 -34 44 -50 42 -8 -2 -22 2 -30 7 -12 8 -13 11 -1 19 9
6 10 11 2 15 -6 4 -9 11 -7 14 2 4 -5 19 -16 32 -11 14 -16 19 -12 11 5 -9 3
-12 -4 -7 -9 5 -9 12 0 26 9 14 9 31 0 70 -15 63 -15 83 -2 75 6 -3 7 1 4 9
-4 10 -1 16 9 16 23 0 31 18 16 36 -10 13 -8 20 14 42 25 24 34 26 124 29 l98
2 23 -32 c13 -18 22 -25 21 -17 -4 21 13 68 19 52 2 -7 -2 -19 -8 -27z m-330
-29 c0 -3 -4 -8 -10 -11 -5 -3 -10 -1 -10 4 0 6 5 11 10 11 6 0 10 -2 10 -4z
m374 -54 c3 -5 -1 -9 -9 -9 -8 0 -12 4 -9 9 3 4 7 8 9 8 2 0 6 -4 9 -8z m37
-29 c-12 -20 -14 -14 -5 12 4 9 9 14 11 11 3 -2 0 -13 -6 -23z m29 -61 c0 -24
-1 -25 -14 -7 -8 11 -12 25 -9 32 8 20 23 4 23 -25z m-55 -122 c3 -5 1 -10 -4
-10 -6 0 -11 5 -11 10 0 6 2 10 4 10 3 0 8 -4 11 -10z m-397 -31 c3 -12 2 -12
-6 0 -8 11 -11 10 -14 -5 -4 -18 -4 -18 -15 2 -10 18 -9 20 9 19 12 -1 24 -8
26 -16z m386 -80 c-3 -5 -12 -9 -20 -9 -8 0 -12 5 -9 10 4 6 1 18 -7 27 -11
14 -8 14 14 -1 15 -10 25 -22 22 -27z m-281 15 c9 -3 13 -13 10 -25 -3 -10 -9
-16 -14 -13 -5 3 -6 10 -3 16 4 6 0 14 -7 19 -16 10 -8 12 14 3z m174 -36 c-7
-4 -25 -8 -42 -9 -29 -1 -30 -1 -5 -9 24 -8 24 -8 3 -9 -13 -1 -31 7 -41 17
-18 18 -17 18 39 18 31 -1 52 -4 46 -8z m-113 -25 c-5 -5 -12 -12 -16 -18 -4
-6 -8 -2 -8 8 0 9 7 17 17 17 9 0 12 -3 7 -7z m166 3 c0 -7 -40 -14 -44 -7 -3
4 6 8 20 9 13 1 24 0 24 -2z"/>
<path d="M3824 589 c-8 -14 14 -19 25 -6 8 10 7 14 -5 14 -8 0 -17 -4 -20 -8z"/>
<path d="M3800 560 c0 -5 5 -10 10 -10 6 0 10 5 10 10 0 6 -4 10 -10 10 -5 0
-10 -4 -10 -10z"/>
<path d="M218 405 l3 -283 34 4 c20 2 35 0 35 -6 0 -5 5 -10 10 -10 6 0 10 50
10 129 0 108 3 130 16 135 9 3 62 6 119 6 103 0 130 9 106 33 -9 9 -11 8 -6
-5 4 -10 3 -18 -2 -18 -13 0 -12 33 1 42 6 4 -42 8 -106 8 -65 0 -118 4 -118
9 0 5 -9 7 -19 4 -23 -6 -33 -37 -18 -52 8 -8 6 -11 -5 -11 -14 0 -16 18 -17
141 0 78 -2 144 -4 146 -3 2 -13 5 -23 7 -18 4 -19 -6 -16 -279z m117 7 c-7
-8 -45 10 -40 19 4 5 14 3 25 -3 11 -7 17 -14 15 -16z m-5 -22 c-19 -13 -30
-13 -30 0 0 6 10 10 23 10 18 0 19 -2 7 -10z m-34 -32 c1 -10 -4 -18 -12 -18
-10 0 -14 -24 -17 -102 l-3 -103 -2 123 c-2 110 0 123 15 120 9 -2 17 -11 19
-20z"/>
<path d="M720 415 c3 -151 2 -275 -2 -275 -5 0 -8 -6 -8 -12 0 -10 48 -12 215
-10 184 2 215 5 215 18 0 13 -20 15 -139 12 -77 -2 -137 0 -134 5 2 4 65 7
139 7 110 0 134 3 134 14 0 12 -26 16 -139 18 -80 2 -146 -1 -155 -7 -26 -16
-34 4 -38 98 -2 48 -1 82 2 76 5 -7 9 -6 13 4 3 9 -1 18 -10 21 -13 5 -11 10
10 26 31 25 58 27 30 3 -20 -18 -21 -43 -2 -43 6 0 8 3 6 8 -7 10 237 9 244
-1 3 -5 9 0 11 11 4 15 2 19 -8 15 -8 -3 -14 0 -14 6 0 6 6 11 14 11 9 0 12 7
9 18 -4 17 -17 19 -133 20 -75 1 -132 -3 -135 -9 -4 -5 -11 -6 -17 -3 -7 5 -9
1 -5 -9 3 -9 -1 -18 -10 -21 -11 -5 -13 -2 -8 11 12 30 18 59 8 46 -4 -6 -8
16 -8 52 0 39 4 61 10 57 6 -3 5 1 -2 9 -10 12 -8 15 8 16 10 1 19 -2 19 -8 0
-5 57 -8 138 -7 l137 2 -127 3 c-71 2 -128 7 -128 11 0 4 63 6 140 4 l140 -3
0 35 0 36 -199 0 c-110 0 -205 2 -213 5 -11 4 -12 -43 -8 -270z m373 18 c-7
-2 -13 -11 -13 -19 0 -11 -20 -14 -107 -12 l-108 2 103 3 c81 3 102 7 102 18
0 8 8 15 18 14 10 0 12 -3 5 -6z m-249 -266 c3 3 6 -1 6 -10 0 -9 -7 -17 -16
-17 -8 0 -12 5 -9 10 3 6 -1 10 -9 10 -9 0 -16 5 -16 10 0 7 6 7 19 1 10 -6
21 -7 25 -4z"/>
<path d="M1308 682 l-38 -3 0 -280 0 -279 41 0 41 0 -4 179 c-2 99 0 177 4
175 3 -2 8 2 11 8 3 11 7 11 19 0 12 -10 20 -8 42 9 14 11 26 16 26 10 0 -6 6
-11 14 -11 11 0 15 -12 14 -40 0 -22 -5 -40 -11 -40 -6 0 -7 -3 -4 -6 3 -4 2
-15 -4 -25 -7 -13 -6 -19 2 -19 6 0 8 -7 5 -16 -3 -8 -2 -13 3 -10 5 3 11 -1
15 -9 3 -8 12 -12 20 -9 10 4 13 0 9 -14 -2 -10 2 -26 10 -34 8 -8 17 -26 19
-39 2 -17 9 -24 24 -23 12 1 21 -4 21 -10 0 -6 1 -22 2 -36 1 -21 3 -22 12
-10 8 12 9 10 5 -10 -5 -24 -3 -25 42 -24 67 2 72 3 72 14 0 6 -6 10 -12 10
-10 0 -12 58 -8 272 l5 273 -40 0 -40 0 0 -202 c0 -110 3 -199 8 -196 4 2 7
18 7 34 0 18 4 28 10 24 12 -7 2 -57 -14 -67 -6 -4 -20 2 -31 12 -25 23 -45
26 -45 6 0 -9 -9 -14 -20 -13 -11 1 -20 8 -20 15 0 8 6 12 15 8 18 -7 20 5 3
22 -9 9 -9 12 0 12 7 0 12 -4 12 -8 0 -4 9 -8 19 -8 20 0 19 7 -8 38 -9 10
-16 22 -17 26 0 4 -4 15 -9 25 -6 14 -10 16 -16 6 -11 -19 -21 -6 -24 31 -1
18 -9 40 -18 50 -8 10 -12 22 -9 26 4 4 1 4 -5 0 -8 -4 -13 -2 -13 6 0 10 -3
9 -10 -2 -5 -8 -12 -11 -16 -7 -4 4 -2 13 4 19 16 16 15 28 -3 28 -9 0 -15 6
-13 13 5 24 -22 57 -47 57 -19 0 -25 5 -24 23 0 21 1 21 9 2 6 -13 9 -15 9 -5
1 13 2 13 11 0 5 -8 10 -10 10 -5 0 28 -13 33 -72 27z m62 -62 c0 -5 -5 -10
-11 -10 -5 0 -7 5 -4 10 3 6 8 10 11 10 2 0 4 -4 4 -10z m0 -114 c0 -2 -7 -7
-16 -10 -8 -3 -12 -2 -9 4 6 10 25 14 25 6z m150 -170 c0 -2 -7 -7 -16 -10 -8
-3 -12 -2 -9 4 6 10 25 14 25 6z m75 -45 c3 -5 1 -12 -5 -16 -5 -3 -10 1 -10
9 0 18 6 21 15 7z"/>
<path d="M2016 675 c-3 -8 -1 -15 4 -15 6 0 10 7 10 15 0 8 -2 15 -4 15 -2 0
-6 -7 -10 -15z"/>
<path d="M2043 664 c3 -15 -2 -20 -17 -20 -17 1 -21 -5 -19 -32 1 -18 -2 -30
-7 -27 -10 6 -36 -72 -28 -81 4 -3 12 -6 20 -8 21 -3 38 -16 38 -29 0 -7 -5
-5 -10 4 -6 11 -20 15 -39 13 -25 -3 -29 0 -25 14 5 13 4 14 -4 3 -6 -8 -8
-21 -4 -29 4 -11 1 -13 -7 -7 -10 6 -11 3 -1 -15 10 -18 9 -21 -1 -15 -8 6
-11 4 -7 -7 3 -8 -2 -19 -12 -25 -17 -11 -35 -53 -21 -51 19 2 20 -5 6 -32 -9
-17 -19 -28 -24 -26 -7 5 -11 -8 -12 -46 0 -10 -7 -18 -15 -18 -8 0 -12 -5 -9
-11 4 -5 -1 -19 -11 -30 -10 -11 -14 -20 -9 -19 22 5 27 -1 15 -15 -7 -8 -16
-12 -21 -9 -5 3 -9 -2 -9 -10 0 -12 10 -16 36 -16 33 0 36 2 32 25 -3 14 -1
25 3 25 5 0 9 -14 9 -30 l0 -31 22 20 c18 17 19 24 10 43 -11 22 -11 22 -6 -5
4 -17 2 -27 -6 -27 -6 0 -10 11 -8 25 2 14 6 24 9 23 12 -6 39 25 37 41 -2 11
3 15 17 13 11 -2 17 0 12 4 -4 4 1 16 10 27 16 18 16 20 1 14 -9 -3 -19 0 -22
9 -3 8 -13 14 -23 15 -16 0 -15 1 2 9 13 5 26 3 37 -7 12 -11 38 -14 102 -12
47 2 88 1 90 -2 3 -3 -31 -6 -75 -8 -74 -2 -109 -13 -109 -35 0 -3 36 -6 80
-6 66 0 78 2 74 15 -4 8 -1 15 5 15 6 0 11 -8 11 -19 0 -15 6 -18 31 -15 22 3
30 0 26 -9 -6 -16 6 -49 17 -47 9 2 26 -20 26 -34 0 -5 -8 -2 -17 5 -16 12
-17 12 -6 -2 7 -9 10 -19 6 -23 -4 -4 1 -4 11 0 13 5 16 14 12 33 -3 14 -3 20
0 13 3 -6 10 -10 15 -7 10 7 1 -24 -13 -41 -6 -9 4 -13 35 -15 41 -4 44 -2 42
18 -1 13 -8 29 -15 38 -7 8 -10 24 -7 35 3 11 1 20 -4 20 -5 0 -10 -15 -10
-32 -1 -30 -2 -28 -10 12 -5 25 -11 54 -13 65 -3 11 -5 29 -5 40 -1 11 -6 27
-11 35 -9 13 -11 13 -20 0 -5 -8 -10 -10 -10 -5 0 6 6 17 13 24 10 11 9 12 -2
6 -10 -6 -13 -4 -8 7 3 9 0 21 -6 27 -8 8 -8 11 2 11 7 0 9 5 6 10 -10 16 -25
12 -25 -7 0 -9 -3 -14 -6 -10 -4 3 -3 14 1 24 13 28 6 46 -31 79 -26 24 -34
28 -34 15 0 -9 12 -24 28 -33 26 -17 26 -17 4 -18 -15 0 -21 4 -16 12 5 8 2 9
-9 5 -11 -4 -17 -1 -17 9 0 8 -4 13 -9 9 -11 -6 -3 -74 10 -91 9 -11 16 -42
19 -79 1 -11 4 -14 7 -7 2 6 10 12 16 12 7 0 6 -6 -3 -14 -10 -10 -42 -15
-100 -17 -78 -2 -85 0 -82 17 2 16 1 17 -7 4 -9 -13 -11 -12 -11 3 0 17 -1 17
-17 1 -14 -13 -18 -14 -22 -3 -2 8 -11 19 -20 26 -13 10 -14 14 -3 25 11 11
12 10 6 -7 -4 -11 -4 -17 1 -13 4 4 14 0 21 -10 11 -14 13 -15 14 -1 0 8 7 24
16 35 15 18 15 18 9 -3 -4 -13 -2 -23 3 -23 12 0 34 59 27 70 -3 4 2 11 11 14
11 4 15 14 12 31 -3 13 -2 22 2 20 10 -6 35 43 27 52 -4 3 -7 -1 -7 -10 0 -23
-16 -29 -17 -6 -1 10 1 19 5 20 40 5 51 5 47 1 -3 -3 1 -12 8 -20 10 -13 9
-14 -3 -7 -12 6 -12 5 -3 -5 9 -10 16 -8 34 9 28 26 36 26 44 0 4 -11 9 -18
12 -16 2 3 -1 16 -8 29 -7 12 -13 33 -13 45 -1 12 -4 25 -8 29 -4 3 -6 -3 -3
-15 2 -11 0 -21 -6 -21 -5 0 -7 12 -5 27 10 55 0 68 -55 68 -45 0 -50 -2 -46
-21z m-20 -118 c3 3 3 -3 0 -15 -3 -12 -9 -21 -14 -21 -5 0 -6 8 -2 18 5 14 3
13 -10 -3 -14 -17 -16 -18 -17 -3 0 9 5 20 10 23 6 4 8 12 4 18 -3 7 1 4 9 -5
8 -10 17 -15 20 -12z m124 -108 c-3 -7 -5 -2 -5 12 0 14 2 19 5 13 2 -7 2 -19
0 -25z m-187 -38 c0 -5 -5 -10 -11 -10 -5 0 -7 5 -4 10 3 6 8 10 11 10 2 0 4
-4 4 -10z m224 -6 c9 -24 7 -36 -6 -32 -12 4 -19 48 -7 48 4 0 10 -7 13 -16z
m46 -20 c-5 -12 -7 -24 -4 -27 2 -2 -2 -10 -10 -16 -8 -7 -12 -20 -9 -29 6
-14 5 -15 -9 -2 -10 9 -13 19 -7 25 5 5 9 20 9 35 0 20 2 22 11 10 9 -12 10
-11 6 6 -2 12 1 21 8 21 10 0 11 -7 5 -23z m-276 -99 c3 -8 1 -15 -4 -15 -6 0
-10 7 -10 15 0 8 2 15 4 15 2 0 6 -7 10 -15z m256 -5 c0 -5 -4 -10 -10 -10 -5
0 -10 5 -10 10 0 6 5 10 10 10 6 0 10 -4 10 -10z m-336 -74 c-3 -9 -12 -16
-20 -16 -11 0 -10 4 3 20 19 22 26 21 17 -4z m416 14 c0 -5 -10 -10 -22 -9
-22 0 -22 1 -3 9 11 5 21 9 23 9 1 1 2 -3 2 -9z m45 -60 c3 -5 1 -10 -4 -10
-6 0 -11 5 -11 10 0 6 2 10 4 10 3 0 8 -4 11 -10z"/>
<path d="M3233 682 l-143 -3 0 -278 0 -278 42 -6 c23 -3 46 -3 50 -1 4 3 8 54
8 115 0 106 -1 109 -22 110 l-23 0 21 9 c12 5 25 13 28 18 3 6 15 8 26 5 20
-5 20 -4 -2 20 -12 14 -27 23 -31 20 -5 -3 -4 -9 3 -13 8 -5 8 -10 2 -14 -14
-8 -22 18 -11 35 5 8 8 52 7 99 l-3 85 80 1 80 1 -75 -7 -75 -6 74 -2 c60 -2
77 1 88 16 8 9 12 12 9 6 -7 -14 21 -27 29 -14 3 4 -1 11 -7 13 -10 4 -10 6
-1 6 13 1 63 -60 63 -77 0 -6 4 -12 10 -14 6 -2 3 -19 -7 -41 -13 -28 -26 -40
-46 -44 -15 -3 -30 -9 -33 -14 -2 -5 -18 -6 -34 -2 -18 3 -36 0 -45 -7 -10 -9
-15 -9 -15 -1 0 11 -52 16 -63 5 -9 -10 4 -34 19 -34 8 0 14 -4 14 -9 0 -5 10
-7 22 -3 14 3 19 2 14 -7 -4 -6 -11 -9 -15 -7 -4 3 -13 1 -21 -5 -11 -6 -7 -9
16 -9 35 0 105 -31 86 -38 -17 -5 4 -32 25 -32 9 0 13 -6 10 -15 -4 -8 -2 -17
3 -20 6 -4 10 2 10 12 0 15 2 16 10 3 6 -9 6 -18 0 -24 -6 -6 -3 -15 8 -23 11
-9 12 -12 2 -7 -8 4 -1 -8 17 -27 18 -19 32 -37 33 -41 0 -5 0 -11 0 -15 0 -5
20 -8 44 -8 24 0 42 3 40 6 -2 4 3 9 11 13 9 3 15 0 15 -9 0 -8 5 -15 10 -15
15 0 -5 36 -31 54 -13 9 -18 19 -13 28 4 7 4 10 -1 6 -4 -4 -14 -3 -22 3 -11
9 -11 15 -1 28 7 9 0 5 -15 -9 -17 -15 -26 -31 -24 -42 3 -10 1 -21 -4 -24 -8
-4 -14 17 -10 39 0 4 -3 7 -9 7 -5 0 -10 -5 -10 -11 0 -5 -5 -7 -12 -3 -8 5
-4 11 13 18 41 17 57 35 52 56 -3 11 -8 19 -12 18 -21 -2 -32 4 -28 16 3 8 -1
17 -9 20 -10 4 -12 2 -8 -6 5 -7 3 -8 -5 -4 -7 5 -10 15 -7 23 3 8 2 12 -3 9
-8 -5 -26 23 -19 29 2 1 12 8 23 14 14 9 15 11 3 7 -12 -3 -15 -1 -12 9 3 8
13 11 21 8 11 -4 14 -2 9 5 -9 15 6 16 21 1 9 -9 10 -7 6 10 -6 24 -23 27 -42
9 -11 -11 -13 -10 -9 2 3 9 16 15 32 15 18 -1 25 3 21 13 -3 7 -5 16 -5 18 0
3 -4 2 -10 -1 -6 -3 -7 1 -4 9 5 13 8 14 20 1 8 -8 22 -11 31 -8 13 5 12 1 -5
-17 -24 -26 -24 -41 -2 -48 9 -3 11 1 6 13 -4 12 0 22 13 31 22 16 34 84 14
84 -7 0 -13 6 -13 13 0 8 -3 7 -10 -3 -5 -8 -12 -11 -16 -8 -3 4 1 14 10 23 9
9 16 12 16 6 0 -6 7 -11 15 -11 14 0 13 3 -2 24 -10 13 -19 20 -21 15 -2 -5
-8 -9 -13 -9 -6 0 -6 8 1 19 12 23 -5 33 -32 19 -12 -6 -18 -5 -18 2 0 7 -9 9
-22 5 -13 -4 -18 -3 -11 2 15 11 -4 38 -32 44 -11 2 -84 3 -162 1z m256 -73
c-6 -12 -9 -32 -6 -46 5 -29 -4 -20 -21 21 -11 24 -10 28 2 23 8 -3 17 1 20 9
3 8 8 14 11 14 3 0 1 -10 -6 -21z m-322 -21 c-3 -7 -5 -2 -5 12 0 14 2 19 5
13 2 -7 2 -19 0 -25z m291 -24 c-4 -3 -12 5 -18 18 -12 22 -12 22 6 6 10 -10
15 -20 12 -24z m-280 -12 c2 -7 -2 -10 -12 -6 -9 3 -16 11 -16 16 0 13 23 5
28 -10z m-3 -97 c0 -14 -3 -25 -7 -25 -5 0 -8 -7 -8 -17 0 -9 -3 -14 -6 -10
-8 8 5 77 14 77 4 0 7 -11 7 -25z m245 -37 c0 -4 -9 -8 -20 -8 -11 0 -20 4
-20 9 0 6 9 9 20 8 11 -1 20 -5 20 -9z m-258 -50 c-7 -7 -12 -8 -12 -2 0 14
12 26 19 19 2 -3 -1 -11 -7 -17z m273 -78 c3 -5 1 -10 -4 -10 -6 0 -11 5 -11
10 0 6 2 10 4 10 3 0 8 -4 11 -10z m86 -105 c3 2 6 -8 7 -22 2 -21 -1 -23 -12
-14 -10 9 -15 8 -20 -4 -3 -8 -11 -15 -17 -15 -8 0 -6 7 5 19 10 11 14 25 9
37 -6 16 -4 17 9 7 8 -7 17 -11 19 -8z m39 -35 c0 -5 -5 -10 -11 -10 -5 0 -7
5 -4 10 3 6 8 10 11 10 2 0 4 -4 4 -10z m-380 -26 c0 -2 -7 -4 -15 -4 -8 0
-15 4 -15 10 0 5 7 7 15 4 8 -4 15 -8 15 -10z"/>
<path d="M272 623 c2 -47 6 -58 22 -61 16 -3 18 0 12 22 -5 19 -3 26 8 26 8 0
18 -4 21 -10 4 -6 55 -9 128 -8 l122 2 -125 6 -125 6 133 2 132 2 0 35 0 35
-165 0 -166 0 3 -57z m28 -43 c0 -5 -5 -10 -11 -10 -5 0 -7 5 -4 10 3 6 8 10
11 10 2 0 4 -4 4 -10z"/>
<path d="M3430 669 c0 -5 6 -9 14 -9 8 0 16 -4 18 -10 2 -5 8 -6 15 -2 8 5 3
12 -17 19 -17 6 -30 7 -30 2z"/>
<path d="M2838 663 c7 -3 16 -2 19 1 4 3 -2 6 -13 5 -11 0 -14 -3 -6 -6z"/>
<path d="M2580 616 c0 -9 5 -16 10 -16 6 0 10 4 10 9 0 6 -4 13 -10 16 -5 3
-10 -1 -10 -9z"/>
<path d="M272 508 c2 -22 9 -34 21 -36 14 -3 17 4 17 32 0 30 -4 36 -21 36
-17 0 -20 -5 -17 -32z"/>
<path d="M2845 520 c3 -5 8 -10 11 -10 2 0 4 5 4 10 0 6 -5 10 -11 10 -5 0 -7
-4 -4 -10z"/>
<path d="M1438 481 c10 -6 8 -10 -10 -16 -12 -4 -27 -7 -31 -6 -5 1 -6 -3 -2
-9 3 -6 11 -8 16 -4 13 8 41 -15 33 -28 -3 -5 -12 -4 -22 4 -12 10 -11 6 3
-16 l19 -28 10 23 c20 48 11 89 -19 89 -5 0 -4 -4 3 -9z"/>
<path d="M2461 464 c0 -11 3 -14 6 -6 3 7 2 16 -1 19 -3 4 -6 -2 -5 -13z"/>
<path d="M2732 380 c0 -19 2 -27 5 -17 2 9 2 25 0 35 -3 9 -5 1 -5 -18z"/>
<path d="M388 363 c29 -2 74 -2 100 0 26 2 2 3 -53 3 -55 0 -76 -1 -47 -3z"/>
<path d="M1885 330 c-3 -5 -1 -10 4 -10 6 0 11 5 11 10 0 6 -2 10 -4 10 -3 0
-8 -4 -11 -10z"/>
<path d="M2747 333 c18 -2 50 -2 70 0 21 2 7 4 -32 4 -38 0 -55 -2 -38 -4z"/>
<path d="M3660 321 c0 -5 5 -13 10 -16 6 -3 10 -2 10 4 0 5 -4 13 -10 16 -5 3
-10 2 -10 -4z"/>
<path d="M2862 290 c0 -14 2 -19 5 -12 2 6 2 18 0 25 -3 6 -5 1 -5 -13z"/>
<path d="M2296 272 c-2 -4 -1 -14 5 -22 7 -12 9 -10 9 8 0 23 -5 28 -14 14z"/>
</g>
</svg>
